# xmcd
#
# Track frame offsets:
#	150
#	14634
#	27192
#	45769
#	65038
#	80727
#	93494
#	107914
#	124759
#	144682
#	160723
#	182210
#	196833
#
# Disc length: 2859 seconds
#
# Revision: 1
# Processed by: cddbd v1.5.2PL0 Copyright (c) Steve Scherf et al.
# Submitted via: audiograbber 1.83.01
#
DISCID=b00b290d
DTITLE=The Blackhill Ramblers - Rambler Tracks Volume 2
DYEAR=2008
DGENRE=Country
TTITLE0=Steamin' 53
TTITLE1=Rocket Ship
TTITLE2=She Thinks I Still Care
TTITLE3=There Goes My Heart
TTITLE4=Kreeper
TTITLE5=Time Marches On
TTITLE6=Wine, Whiskey, All Alcohol
TTITLE7=I Don't Care
TTITLE8=Big Wheels
TTITLE9=34 Years
TTITLE10=Why You Been Gone So Long
TTITLE11=Move It On Over
TTITLE12=All You Ever Do Is Bring Me Down
EXTD=
EXTT0=
EXTT1=
EXTT2=
EXTT3=
EXTT4=
EXTT5=
EXTT6=
EXTT7=
EXTT8=
EXTT9=
EXTT10=
EXTT11=
EXTT12=
PLAYORDER=
